<svg width="50" height="38" viewBox="0 0 50 38" fill="none" xmlns="http://www.w3.org/2000/svg">
<path fill-rule="evenodd" clip-rule="evenodd" d="M28.4429 0C27.336 0 26.2506 0.0859604 25.1927 0.24847C28.3646 0.735312 31.2663 1.64338 33.7482 3.35658C38.7629 3.6104 44.1745 5.89449 44.1745 11.6756C44.1745 14.0728 43.4086 16.9614 42.1722 18.9356C42.1547 18.964 42.1362 18.9916 42.1178 19.0193C42.1057 19.0375 42.0936 19.0558 42.0819 19.0743L42.0824 19.1045L42.083 19.1287L42.0852 19.1943L42.0862 19.2265C42.0869 19.2519 42.0874 19.2773 42.0874 19.3029C42.0874 28.5965 34.6686 35.7094 25.1927 37.1641C26.2506 37.3267 27.336 37.4125 28.4429 37.4125C39.4649 37.4125 50 29.0527 50 18.7217C50 8.39035 39.4649 0 28.4429 0ZM27.4517 8.32687C26.6268 4.5054 22.351 3.99026 18.7298 3.99026H15.9692H2.17188C1.42089 3.99026 0.723346 4.37875 0.327899 5.01717C-0.565945 6.46187 0.47298 8.32687 2.17188 8.32687H15.9044C17.9881 8.32687 20.3193 8.32687 20.1781 11.2178C19.9662 15.7659 13.6085 18.1282 10.5004 18.8335L12.0591 14.4802C12.745 12.5645 11.325 10.5479 9.29044 10.5479C8.04625 10.5479 6.93683 11.3307 6.51966 12.5027L2.33484 24.2601C1.64908 26.1869 3.07773 28.2117 5.12291 28.2117C6.37696 28.2117 7.49501 27.4211 7.9128 26.239L9.33472 22.218C11.4768 21.7957 14.6888 20.9994 17.8246 19.7327C21.0173 18.4427 24.1307 16.6644 25.955 14.2949C26.9772 12.9671 27.5952 11.454 27.5952 9.737C27.5952 9.22202 27.5439 8.7546 27.4517 8.32687ZM32.8787 3.99817L32.9191 3.99875C37.9193 4.05174 43.3292 6.2537 43.3292 12.0346C43.3292 14.4321 42.3756 16.7238 41.1395 18.6982C41.1238 18.7235 41.1073 18.7482 41.0909 18.7728C41.0767 18.794 41.0626 18.8152 41.049 18.8367C36.9954 25.1931 29.1122 28.2177 21.784 28.2177H19.0475C17.6081 28.2177 16.6014 26.7936 17.0815 25.4366L18.9729 20.2768C19.0528 20.0511 19.2252 19.8718 19.4458 19.78C22.092 18.6788 24.6506 17.0532 26.4331 15.2135C26.4415 15.205 26.45 15.1964 26.4582 15.1877C26.4996 15.152 26.5517 15.1284 26.6107 15.1284C26.7404 15.1284 26.8456 15.2337 26.8456 15.3636C26.8456 15.3889 26.8386 15.4125 26.8312 15.4353L26.8209 15.4645L23.2673 25.4676C27.8235 25.4676 32.8391 22.2944 34.8876 18.2398C35.5942 16.8648 36.2651 15.3137 36.2651 13.727C36.2651 9.56662 33.8989 8.33261 30.0488 8.33261H28.7254C28.2048 5.92118 26.7495 4.78981 24.8372 4.28247C24.8113 4.27551 24.7849 4.26894 24.7585 4.26243C24.6995 4.23307 24.6582 4.17395 24.6582 4.10367C24.6582 4.01733 24.7209 3.94873 24.8024 3.93206L24.8744 3.93267L32.7331 3.99599C32.7514 3.99599 32.7698 3.99618 32.7882 3.99646L32.8416 3.99745L32.8787 3.99817ZM2.38364 34.4404C2.33046 34.3659 2.30652 34.2702 2.31183 34.1531C2.31713 34.0361 2.38629 33.9351 2.51931 33.85C2.60439 33.7968 2.69481 33.7742 2.79056 33.7822C2.88631 33.7901 2.97937 33.8393 3.06977 33.9298C3.22405 34.084 3.38628 34.2037 3.55646 34.2888C3.72664 34.3739 3.9394 34.4165 4.19472 34.4165C4.27451 34.4111 4.36228 34.3991 4.45803 34.3805C4.55378 34.3619 4.63755 34.3194 4.70932 34.2529C4.78116 34.1864 4.81708 34.084 4.81708 33.9457C4.81708 33.8287 4.77719 33.7356 4.69741 33.6665C4.6176 33.5973 4.51256 33.5388 4.38224 33.4909C4.25193 33.4431 4.10698 33.3979 3.94741 33.3553C3.78252 33.3074 3.61364 33.2542 3.44075 33.1958C3.26792 33.1372 3.1097 33.0614 2.96607 32.9684C2.82245 32.8753 2.70545 32.7516 2.61505 32.5973C2.5246 32.4431 2.47939 32.249 2.47939 32.015C2.47939 31.749 2.55385 31.5229 2.70276 31.3368C2.85169 31.1506 3.04451 31.007 3.28122 30.9059C3.51789 30.8049 3.76654 30.7544 4.02716 30.7544C4.19205 30.7544 4.3649 30.7743 4.54575 30.8142C4.72664 30.8541 4.89952 30.9179 5.06441 31.0057C5.22928 31.0934 5.36757 31.2091 5.47928 31.3527C5.53775 31.4325 5.57233 31.5282 5.58298 31.6399C5.59363 31.7516 5.54311 31.8527 5.43142 31.9432C5.35163 32.007 5.25852 32.0349 5.15212 32.0269C5.04576 32.019 4.958 31.9831 4.88881 31.9192C4.79842 31.8022 4.67743 31.7091 4.52587 31.6399C4.37424 31.5708 4.20003 31.5362 4.00324 31.5362C3.92343 31.5362 3.83702 31.5455 3.74398 31.5642C3.65088 31.5828 3.56977 31.6227 3.50063 31.6838C3.43145 31.745 3.39685 31.8421 3.39685 31.9751C3.39685 32.0974 3.43676 32.1944 3.51654 32.2663C3.59633 32.3381 3.70406 32.3966 3.83973 32.4418C3.97535 32.487 4.12026 32.5309 4.27449 32.5734C4.43407 32.616 4.5963 32.6665 4.76117 32.725C4.92606 32.7835 5.07766 32.8606 5.21598 32.9564C5.35425 33.0521 5.46595 33.1758 5.55109 33.3274C5.63619 33.479 5.67873 33.6718 5.67873 33.9058C5.67873 34.1771 5.59894 34.4085 5.43936 34.5999C5.27979 34.7914 5.08034 34.9364 4.84102 35.0348C4.60166 35.1332 4.35698 35.1824 4.10701 35.1824C3.79316 35.1824 3.47933 35.1278 3.16552 35.0188C2.85172 34.9098 2.59108 34.717 2.38364 34.4404ZM9.88364 34.1252C10.0778 33.7928 10.1749 33.4085 10.1749 32.9724C10.1749 32.5362 10.0778 32.1519 9.88364 31.8195C9.68955 31.487 9.42894 31.2264 9.10184 31.0376C8.77468 30.8488 8.409 30.7544 8.00481 30.7544C7.60056 30.7544 7.23488 30.8488 6.90776 31.0376C6.58066 31.2264 6.32003 31.487 6.12589 31.8195C5.93174 32.1519 5.83467 32.5362 5.83467 32.9724C5.83467 33.4085 5.93174 33.7928 6.12589 34.1252C6.32003 34.4576 6.58066 34.7169 6.90776 34.9031C7.23488 35.0893 7.60056 35.1824 8.00481 35.1824C8.409 35.1824 8.77468 35.0893 9.10184 34.9031C9.42894 34.7169 9.68955 34.4576 9.88364 34.1252ZM9.05396 32.2663C9.16297 32.4657 9.21747 32.7011 9.21747 32.9724C9.21747 33.2383 9.16297 33.471 9.05396 33.6704C8.94492 33.8699 8.79863 34.0255 8.61515 34.1372C8.43161 34.2489 8.22817 34.3047 8.00481 34.3047C7.78139 34.3047 7.57795 34.2489 7.39446 34.1372C7.21091 34.0255 7.06464 33.8699 6.95565 33.6704C6.84659 33.471 6.79206 33.2383 6.79206 32.9724C6.79206 32.7011 6.84659 32.4657 6.95565 32.2663C7.06464 32.0668 7.21091 31.9112 7.39446 31.7995C7.57795 31.6878 7.78139 31.632 8.00481 31.632C8.22817 31.632 8.43161 31.6878 8.61515 31.7995C8.79863 31.9112 8.94492 32.0668 9.05396 32.2663ZM11.611 34.6159C11.611 34.7542 11.5645 34.8699 11.4714 34.9629C11.3783 35.056 11.2626 35.1026 11.1243 35.1026C10.9913 35.1026 10.8797 35.056 10.7893 34.9629C10.6988 34.8699 10.6536 34.7542 10.6536 34.6159V29.6852C10.6536 29.547 10.7002 29.4313 10.7932 29.3382C10.8863 29.2451 11.002 29.1985 11.1403 29.1985C11.2786 29.1985 11.3917 29.2451 11.4794 29.3382C11.5671 29.4313 11.611 29.547 11.611 29.6852V34.6159ZM15.7996 30.9738C15.7092 30.8807 15.5949 30.8341 15.4566 30.8341C15.3183 30.8341 15.2039 30.8807 15.1135 30.9738C15.0231 31.0669 14.9779 31.1825 14.9779 31.3208V33.3473C14.9779 33.6718 14.9061 33.9125 14.7625 34.0694C14.6189 34.2263 14.4008 34.3047 14.1082 34.3047C13.821 34.3047 13.6056 34.2263 13.462 34.0694C13.3184 33.9125 13.2466 33.6718 13.2466 33.3473V31.3208C13.2466 31.1825 13.2014 31.0669 13.1109 30.9738C13.0205 30.8807 12.9062 30.8341 12.7679 30.8341C12.6296 30.8341 12.5152 30.8807 12.4248 30.9738C12.3344 31.0669 12.2892 31.1825 12.2892 31.3208V33.3473C12.2892 33.9112 12.4448 34.3579 12.7559 34.6877C13.0671 35.0175 13.5178 35.1824 14.1082 35.1824C14.6986 35.1824 15.1507 35.0175 15.4646 34.6877C15.7784 34.3579 15.9353 33.9112 15.9353 33.3473V31.3208C15.9353 31.1825 15.8901 31.0669 15.7996 30.9738ZM18.4325 30.7544C18.7357 30.7544 19.0004 30.7863 19.2264 30.8501C19.4524 30.9139 19.6279 31.003 19.7529 31.1174C19.878 31.2317 19.9405 31.3687 19.9405 31.5283C19.9405 31.6346 19.9085 31.7344 19.8447 31.8275C19.7809 31.9206 19.6878 31.9671 19.5654 31.9671C19.4803 31.9671 19.4099 31.9551 19.3541 31.9312C19.2982 31.9072 19.249 31.8767 19.2065 31.8394C19.1639 31.8022 19.1134 31.7676 19.0549 31.7357C19.0017 31.7038 18.9205 31.6785 18.8115 31.6599C18.7025 31.6413 18.6214 31.632 18.5682 31.632C18.2969 31.632 18.0669 31.6905 17.878 31.8075C17.6892 31.9245 17.5443 32.0828 17.4432 32.2823C17.3422 32.4817 17.2916 32.7117 17.2916 32.9724C17.2916 33.2276 17.3435 33.455 17.4472 33.6545C17.5509 33.854 17.6945 34.0122 17.878 34.1292C18.0615 34.2462 18.273 34.3047 18.5123 34.3047C18.6453 34.3047 18.7597 34.2967 18.8554 34.2808C18.9511 34.2648 19.0309 34.2409 19.0947 34.209C19.1692 34.1665 19.2357 34.1213 19.2942 34.0734C19.3527 34.0255 19.4405 34.0016 19.5575 34.0016C19.6958 34.0016 19.8022 34.0454 19.8766 34.1332C19.9511 34.221 19.9883 34.3287 19.9883 34.4563C19.9883 34.5893 19.9139 34.7103 19.765 34.8193C19.616 34.9284 19.4205 35.0161 19.1785 35.0826C19.008 35.1295 18.8275 35.1598 18.6371 35.1737L18.3128 36.052C18.249 36.2222 18.14 36.3073 17.9858 36.3073C17.9326 36.3073 17.8648 36.2927 17.7823 36.2634C17.6998 36.2342 17.6267 36.1917 17.5629 36.1358C17.4991 36.08 17.4672 36.0148 17.4672 35.9403C17.4672 35.8605 17.4991 35.7807 17.5629 35.7009L17.9743 35.1471C17.7257 35.1031 17.5008 35.0177 17.2996 34.8911C16.9911 34.697 16.7531 34.4324 16.5856 34.0973C16.418 33.7622 16.3342 33.3872 16.3342 32.9724C16.3342 32.5362 16.4233 32.1519 16.6015 31.8195C16.7797 31.487 17.027 31.2264 17.3435 31.0376C17.66 30.8488 18.023 30.7544 18.4325 30.7544ZM24.0933 34.1252C24.2873 33.7928 24.3844 33.4085 24.3844 32.9724C24.3844 32.5362 24.2873 32.1519 24.0933 31.8195C23.8991 31.487 23.6385 31.2264 23.3114 31.0376C22.9843 30.8488 22.6186 30.7544 22.2143 30.7544C21.8101 30.7544 21.4444 30.8488 21.1173 31.0376C20.7902 31.2264 20.5295 31.487 20.3354 31.8195C20.1413 32.1519 20.0442 32.5362 20.0442 32.9724C20.0442 33.4085 20.1413 33.7928 20.3354 34.1252C20.5295 34.4576 20.7902 34.7169 21.1173 34.9031C21.4444 35.0893 21.8101 35.1824 22.2143 35.1824C22.6186 35.1824 22.9843 35.0893 23.3114 34.9031C23.6385 34.7169 23.8991 34.4576 24.0933 34.1252ZM23.2635 32.2663C23.3725 32.4657 23.427 32.7011 23.427 32.9724C23.427 33.2383 23.3725 33.471 23.2635 33.6704C23.1544 33.8699 23.0082 34.0255 22.8247 34.1372C22.6411 34.2489 22.4377 34.3047 22.2143 34.3047C21.9909 34.3047 21.7875 34.2489 21.604 34.1372C21.4204 34.0255 21.2742 33.8699 21.1651 33.6704C21.0561 33.471 21.0016 33.2383 21.0016 32.9724C21.0016 32.7011 21.0561 32.4657 21.1651 32.2663C21.2742 32.0668 21.4204 31.9112 21.604 31.7995C21.7875 31.6878 21.9909 31.632 22.2143 31.632C22.4377 31.632 22.6411 31.6878 22.8247 31.7995C23.0082 31.9112 23.1544 32.0668 23.2635 32.2663ZM20.838 30.2518C20.9258 30.3475 21.0282 30.3953 21.1452 30.3953C21.2409 30.3953 21.3207 30.3594 21.3846 30.2876C21.4484 30.2158 21.4617 30.1214 21.4244 30.0044C21.4085 29.9512 21.4178 29.91 21.4524 29.8807C21.487 29.8515 21.5308 29.8369 21.584 29.8369C21.6585 29.8369 21.7436 29.8635 21.8393 29.9166C21.935 29.9698 22.0388 30.0296 22.1505 30.0961C22.2622 30.1626 22.3752 30.2225 22.4896 30.2757C22.6039 30.3289 22.7169 30.3555 22.8286 30.3555C23.0521 30.3555 23.2302 30.3142 23.3632 30.2318C23.4962 30.1494 23.5919 30.0523 23.6504 29.9406C23.7089 29.8289 23.7382 29.7278 23.7382 29.6374C23.7382 29.4725 23.6956 29.3435 23.6105 29.2505C23.5254 29.1574 23.4217 29.1108 23.2994 29.1108C23.2036 29.1108 23.1238 29.1454 23.06 29.2145C22.9962 29.2837 22.9829 29.3794 23.0201 29.5018C23.0361 29.5549 23.0281 29.5962 22.9962 29.6254C22.9643 29.6547 22.9191 29.6693 22.8605 29.6693C22.7914 29.6693 22.7156 29.6427 22.6332 29.5895C22.5507 29.5363 22.463 29.4765 22.3699 29.41C22.2768 29.3435 22.1744 29.2837 22.0627 29.2305C21.951 29.1773 21.826 29.1507 21.6877 29.1507C21.3526 29.1507 21.1053 29.2252 20.9457 29.3741C20.7862 29.5231 20.7064 29.6826 20.7064 29.8528C20.7064 30.023 20.7502 30.156 20.838 30.2518ZM26.754 35.1824C26.3019 35.1824 25.9096 35.0879 25.5772 34.8991C25.2448 34.7103 24.9895 34.4537 24.8113 34.1292C24.6331 33.8048 24.544 33.4377 24.544 33.0282C24.544 32.5495 24.6411 32.1413 24.8352 31.8035C25.0294 31.4658 25.2833 31.2065 25.5971 31.0256C25.9109 30.8448 26.2434 30.7544 26.5945 30.7544C26.8657 30.7544 27.1224 30.8102 27.3643 30.9219C27.6063 31.0336 27.8205 31.1865 28.0066 31.3807C28.1928 31.5748 28.3404 31.7995 28.4494 32.0548C28.5584 32.3101 28.6129 32.5814 28.6129 32.8686C28.6076 32.9963 28.5571 33.1 28.4614 33.1798C28.3656 33.2596 28.2539 33.2995 28.1263 33.2995H25.4925C25.5215 33.4461 25.571 33.5777 25.641 33.6944C25.7607 33.8938 25.9149 34.0454 26.1038 34.1492C26.2926 34.2529 26.4934 34.3047 26.7061 34.3047C26.9029 34.3047 27.0599 34.2888 27.1769 34.2569C27.2939 34.2249 27.3883 34.1864 27.4601 34.1411C27.5319 34.096 27.5971 34.0574 27.6556 34.0255C27.7513 33.9776 27.8417 33.9537 27.9268 33.9537C28.0439 33.9537 28.1409 33.9936 28.218 34.0734C28.2952 34.1532 28.3337 34.2462 28.3337 34.3526C28.3337 34.4962 28.2593 34.6265 28.1103 34.7435C27.972 34.8605 27.7779 34.9629 27.5279 35.0507C27.2779 35.1385 27.02 35.1824 26.754 35.1824ZM25.5493 32.3181C25.5299 32.3743 25.5138 32.4355 25.5009 32.5016H27.5918V32.4458C27.5811 32.2915 27.5266 32.1532 27.4282 32.0309C27.3298 31.9086 27.2074 31.8115 27.0612 31.7397C26.9149 31.6679 26.7593 31.632 26.5945 31.632C26.4349 31.632 26.286 31.6532 26.1477 31.6958C26.0094 31.7383 25.8897 31.8102 25.7886 31.9112C25.6876 32.0122 25.6078 32.1479 25.5493 32.3181ZM28.6964 34.1531C28.6911 34.2702 28.715 34.3659 28.7682 34.4404C28.9756 34.717 29.2363 34.9098 29.5501 35.0188C29.8639 35.1278 30.1777 35.1824 30.4916 35.1824C30.7415 35.1824 30.9862 35.1332 31.2256 35.0348C31.4649 34.9364 31.6643 34.7914 31.8239 34.5999C31.9835 34.4085 32.0633 34.1771 32.0633 33.9058C32.0633 33.6718 32.0207 33.479 31.9356 33.3274C31.8505 33.1758 31.7388 33.0521 31.6005 32.9564C31.4622 32.8606 31.3106 32.7835 31.1457 32.725C30.9809 32.6665 30.8186 32.616 30.659 32.5734C30.5048 32.5309 30.3599 32.487 30.2243 32.4418C30.0886 32.3966 29.9809 32.3381 29.9011 32.2663C29.8214 32.1944 29.7815 32.0974 29.7815 31.9751C29.7815 31.8421 29.8161 31.745 29.8852 31.6838C29.9543 31.6227 30.0354 31.5828 30.1285 31.5642C30.2216 31.5455 30.308 31.5362 30.3878 31.5362C30.5846 31.5362 30.7588 31.5708 30.9104 31.6399C31.062 31.7091 31.183 31.8022 31.2734 31.9192C31.3426 31.9831 31.4303 32.019 31.5367 32.0269C31.6431 32.0349 31.7362 32.007 31.816 31.9432C31.9277 31.8527 31.9782 31.7516 31.9675 31.6399C31.9569 31.5282 31.9223 31.4325 31.8638 31.3527C31.7521 31.2091 31.6138 31.0934 31.4489 31.0057C31.2841 30.9179 31.1112 30.8541 30.9304 30.8142C30.7495 30.7743 30.5766 30.7544 30.4117 30.7544C30.1511 30.7544 29.9024 30.8049 29.6658 30.9059C29.4291 31.007 29.2362 31.1506 29.0873 31.3368C28.9384 31.5229 28.8639 31.749 28.8639 32.015C28.8639 32.249 28.9092 32.4431 28.9996 32.5973C29.09 32.7516 29.207 32.8753 29.3506 32.9684C29.4943 33.0614 29.6525 33.1372 29.8253 33.1958C29.9982 33.2542 30.1671 33.3074 30.332 33.3553C30.4915 33.3979 30.6365 33.4431 30.7668 33.4909C30.8971 33.5388 31.0022 33.5973 31.0819 33.6665C31.1617 33.7356 31.2016 33.8287 31.2016 33.9457C31.2016 34.084 31.1657 34.1864 31.0939 34.2529C31.0221 34.3194 30.9383 34.3619 30.8426 34.3805C30.7468 34.3991 30.6591 34.4111 30.5793 34.4165C30.3239 34.4165 30.1112 34.3739 29.941 34.2888C29.7708 34.2037 29.6086 34.084 29.4543 33.9298C29.3639 33.8393 29.2709 33.7901 29.1751 33.7822C29.0794 33.7742 28.9889 33.7968 28.9039 33.85C28.7708 33.9351 28.7017 34.0361 28.6964 34.1531Z" fill="#263579"/>
</svg>
