<svg width="21" height="17" viewBox="0 0 21 17" fill="none" xmlns="http://www.w3.org/2000/svg">
<path d="M10.4999 13.1251C8.01108 13.1251 5.9964 11.1986 5.81101 8.7574L2.36899 6.09729C1.9165 6.66495 1.50011 7.26509 1.16411 7.92134C1.08905 8.06981 1.04994 8.23386 1.04994 8.40023C1.04994 8.56661 1.08905 8.73065 1.16411 8.87913C2.94353 12.351 6.46627 14.7001 10.4999 14.7001C11.3829 14.7001 12.2347 14.5688 13.0557 14.3568L11.353 13.0394C11.0718 13.0937 10.7863 13.1224 10.4999 13.1251ZM20.7971 15.0315L17.1697 12.228C18.2716 11.2993 19.1778 10.1609 19.8357 8.8788C19.9108 8.73032 19.9499 8.56628 19.9499 8.3999C19.9499 8.23353 19.9108 8.06949 19.8357 7.92101C18.0563 4.44912 14.5335 2.10008 10.4999 2.10008C8.81056 2.10213 7.14865 2.52742 5.66598 3.33711L1.49158 0.110664C1.43715 0.0683056 1.3749 0.0370888 1.30839 0.0187975C1.24189 0.00050606 1.17243 -0.00450138 1.10399 0.00406127C1.03555 0.0126239 0.969471 0.0345888 0.909523 0.0687008C0.849575 0.102813 0.796936 0.148403 0.754615 0.202867L0.110507 1.03204C0.0250629 1.14195 -0.0132241 1.28131 0.00406681 1.41945C0.0213577 1.55759 0.0928104 1.68321 0.20271 1.76868L19.5082 16.6895C19.5627 16.7318 19.6249 16.763 19.6914 16.7813C19.7579 16.7996 19.8274 16.8046 19.8958 16.7961C19.9643 16.7875 20.0303 16.7655 20.0903 16.7314C20.1502 16.6973 20.2029 16.6517 20.2452 16.5973L20.8896 15.7681C20.975 15.6581 21.0133 15.5188 20.9959 15.3806C20.9786 15.2425 20.9071 15.1169 20.7971 15.0315ZM14.7688 10.3721L13.4793 9.37525C13.5879 9.06139 13.6455 8.73216 13.6499 8.40007C13.6563 7.91387 13.5486 7.43295 13.3354 6.99594C13.1222 6.55892 12.8095 6.178 12.4224 5.88375C12.0353 5.58951 11.5846 5.39016 11.1065 5.3017C10.6284 5.21325 10.1362 5.23816 9.66942 5.37443C9.86729 5.64254 9.97432 5.96686 9.97491 6.30007C9.97001 6.41096 9.95307 6.52098 9.92438 6.6282L7.50905 4.7615C8.34806 4.06036 9.40651 3.67589 10.4999 3.67508C11.1205 3.67473 11.7351 3.79671 12.3085 4.03404C12.8819 4.27137 13.4029 4.6194 13.8417 5.05823C14.2806 5.49705 14.6286 6.01807 14.8659 6.59149C15.1033 7.1649 15.2252 7.77948 15.2249 8.40007C15.2249 9.1098 15.0513 9.7713 14.7688 10.3724V10.3721Z" fill="black"/>
</svg>
