<svg width="31" height="31" viewBox="0 0 31 31" fill="none" xmlns="http://www.w3.org/2000/svg">
<circle cx="15.5" cy="15.5" r="15.5" fill="#87FF4F"/>
<path d="M18.9571 12.6507V11.701C18.9571 9.60618 17.2528 7.90196 15.1581 7.90196C13.0632 7.90196 11.359 9.60618 11.359 11.701V12.6507H8.50977V20.7237C8.50977 22.035 9.57281 23.098 10.8842 23.098H19.4319C20.7433 23.098 21.8063 22.035 21.8063 20.7237V12.6507H18.9571ZM13.2585 11.701C13.2585 10.6536 14.1106 9.80147 15.1581 9.80147C16.2055 9.80147 17.0576 10.6536 17.0576 11.701V12.6507H13.2585V11.701ZM18.0073 15.2626C17.6139 15.2626 17.295 14.9437 17.295 14.5502C17.295 14.1568 17.6139 13.8379 18.0073 13.8379C18.4007 13.8379 18.7196 14.1568 18.7196 14.5502C18.7196 14.9437 18.4007 15.2626 18.0073 15.2626ZM12.3088 15.2626C11.9154 15.2626 11.5965 14.9437 11.5965 14.5502C11.5965 14.1568 11.9154 13.8379 12.3088 13.8379C12.7022 13.8379 13.0211 14.1568 13.0211 14.5502C13.0211 14.9437 12.7022 15.2626 12.3088 15.2626Z" fill="black"/>
</svg>
