<svg width="16" height="19" viewBox="0 0 16 19" fill="none" xmlns="http://www.w3.org/2000/svg">
<path d="M13.3491 10.0404C13.3406 8.48369 14.0447 7.30869 15.47 6.44336C14.6725 5.3023 13.4679 4.67451 11.8772 4.5515C10.3713 4.43273 8.72547 5.42956 8.12313 5.42956C7.48685 5.42956 6.02766 4.59392 4.88236 4.59392C2.51541 4.63209 0 6.48154 0 10.2441C0 11.3554 0.203608 12.5035 0.610825 13.6884C1.15378 15.2452 3.11351 19.0628 5.15808 18.9992C6.22703 18.9738 6.98207 18.2399 8.3734 18.2399C9.7223 18.2399 10.4222 18.9992 11.6142 18.9992C13.6757 18.9695 15.4488 15.4997 15.9663 13.9387C13.2006 12.6365 13.3491 10.121 13.3491 10.0404ZM10.9482 3.07534C12.1062 1.70098 12.0002 0.449635 11.9662 0C10.944 0.0593858 9.76048 0.695662 9.08603 1.4804C8.34371 2.32029 7.9068 3.35954 8.00012 4.53029C9.10724 4.61513 10.1168 4.04672 10.9482 3.07534Z" fill="white"/>
</svg>
