<svg width="17" height="98" viewBox="0 0 17 98" fill="none" xmlns="http://www.w3.org/2000/svg">
<path d="M9.98093 62.3762H9.28907L9.36415 63.064L12.2057 89.0939L12.2057 89.0942C12.2996 89.9502 12.2929 90.8623 12.2091 91.647C12.1227 92.4555 11.9637 93.0378 11.8096 93.3012C11.809 93.3023 11.8083 93.3034 11.8077 93.3045L9.51903 97.0555C9.42434 96.7684 9.33141 96.3475 9.26868 95.7935C9.26864 95.7931 9.26859 95.7927 9.26855 95.7923L6.56864 71.0773L5.35117 70.9893L0.940329 88.0509C0.928307 88.0974 0.916326 88.1412 0.904431 88.1824C0.856625 88.0218 0.810018 87.827 0.768777 87.5977C0.677649 87.0909 0.620444 86.4595 0.620444 85.7455V3.50249C0.620444 2.7493 0.681405 2.10405 0.776456 1.59756C0.816179 1.38589 0.860354 1.2067 0.905238 1.05845C0.91599 1.09845 0.926754 1.14087 0.937476 1.18579L0.93737 1.18582L0.940276 1.19706L15.4157 57.1914L15.4156 57.1914L15.4178 57.1994C15.6823 58.1689 15.7248 59.5748 15.5964 60.7515C15.5324 61.338 15.43 61.828 15.3115 62.1544C15.2747 62.2556 15.2412 62.3276 15.2144 62.3762H9.98093ZM9.2671 97.458C9.26704 97.4576 9.26985 97.4541 9.27573 97.4487C9.27007 97.4558 9.26715 97.4585 9.2671 97.458ZM9.7001 97.4481C9.70652 97.4539 9.70962 97.4578 9.70956 97.4583C9.70949 97.4588 9.7063 97.4559 9.7001 97.4481ZM1.13097 0.553245C1.13098 0.553268 1.13053 0.553741 1.12962 0.554592C1.13051 0.553647 1.13097 0.553221 1.13097 0.553245ZM15.1641 62.4519C15.1641 62.4519 15.1646 62.4513 15.1657 62.4503C15.1646 62.4515 15.1641 62.452 15.1641 62.4519Z" fill="white" stroke="white" stroke-width="1.2381"/>
</svg>
